HIERARCHY
ROOT pelvis
{
  OFFSET 0 100 0
  CHANNELS 6 Xposition Yposition Zposition Zrotation Xrotation Yrotation
  JOINT pelvis_right_femur
  {
    OFFSET -10.78128 -3.44521 -0.5502486
    CHANNELS 3 Zrotation Xrotation Yrotation
    JOINT right_femur_tibia
    {
      OFFSET -0.8047443 -44.0398 -0.1307829
      CHANNELS 3 Zrotation Xrotation Yrotation
      JOINT right_tibia_foot
      {
        OFFSET 3.006224 -47.83518 -5
        CHANNELS 3 Zrotation Xrotation Yrotation
        End Site
        {
          OFFSET 0 -5 15
        }
      }
    }
  }
  JOINT pelvis_left_femur
  {
    OFFSET 10.78128 -3.44521 -0.5502486
    CHANNELS 3 Zrotation Xrotation Yrotation
    JOINT left_femur_tibia
    {
      OFFSET 0.8047443 -44.0398 -0.1307829
      CHANNELS 3 Zrotation Xrotation Yrotation
      JOINT left_tibia_foot
      {
        OFFSET -4.370144 -48.10324 -4.275266
        CHANNELS 3 Zrotation Xrotation Yrotation
        End Site
        {
          OFFSET 0 -5 15
        }
      }
    }
  }
  JOINT pelvis_spine1
  {
    OFFSET 0 6.468898 -3.129235
    CHANNELS 3 Zrotation Xrotation Yrotation
    JOINT spine1
    {
      OFFSET 0 23.15396 4.99043
      CHANNELS 3 Zrotation Xrotation Yrotation
      JOINT spine2
      {
        OFFSET 0 20.79997 -5.064912
        CHANNELS 3 Zrotation Xrotation Yrotation
        JOINT neck
        {
          OFFSET 0 14.38658 9.616178
          CHANNELS 3 Zrotation Xrotation Yrotation
          End Site
          {
            OFFSET 0 20 0
          }
        }
      }
      JOINT right_manubrium
      {
        OFFSET -5.722621 16.35077 3.967754
        CHANNELS 3 Zrotation Xrotation Yrotation
        JOINT right_clavicle
        {
          OFFSET -13.16364 1.694482 -4.693211
          CHANNELS 3 Zrotation Xrotation Yrotation
          JOINT right_humerus
          {
            OFFSET -28.5034 -0.3100689 -2.792744
            CHANNELS 3 Zrotation Xrotation Yrotation
            JOINT right_radius
            {
              OFFSET -25.15693 0.02248979 -1.271978
              CHANNELS 3 Zrotation Xrotation Yrotation
              End Site
              {
                OFFSET -15 0 0
              }
            }
          }
        }
      }
      JOINT left_manubrium
      {
        OFFSET 5.722621 16.35077 3.967754
        CHANNELS 3 Zrotation Xrotation Yrotation
        JOINT left_clavicle
        {
          OFFSET 13.16364 1.694482 -4.693211
          CHANNELS 3 Zrotation Xrotation Yrotation
          JOINT left_humerus
          {
            OFFSET 29.39168 -1.063119 -2.237045
            CHANNELS 3 Zrotation Xrotation Yrotation
            JOINT left_radius
            {
              OFFSET 24.59957 -0.9528479 0.9047498
              CHANNELS 3 Zrotation Xrotation Yrotation
              End Site
              {
                OFFSET 15 -0 -0
              }
            }
          }
        }
      }
    }
  }
}
MOTION
Frames: 15
Frame Time: 0.0416666666667
0 103.5113 0 2.177836 -1.22536 0.2944129 1.246635 -10.03651 8.77094 -0 34.92978 -0 -5.286109 -18.01389 -2.460505 -8.028133 10.10158 -23.5172 -0 5.121795 -0 7.68682 -16.13421 26.58144 -4.325043 -5.063929 4.933766 1.996911 9.22146 -7.75096 0.8322908 22.83537 7.174293 3.248848 -23.09605 8.808788 6.379601 -19.77717 11.56719 86.30953 35.94285 -19.77743 -0 0 16.28525 -7.581593 8.242991 4.625616 5.458481 -19.46192 -1.711722 -94.79768 29.76016 22.96641 0 0 -15.90821 3.485678 17.90426 9.595422
0.3233373 103.4934 1.330713 2.004752 -1.136604 0.4929634 1.532912 -10.99901 8.710575 -0 35.10478 -0 -5.373679 -17.68715 -2.582421 -7.851739 10.24234 -23.41205 -0 5.148003 -0 7.558099 -16.38034 26.41174 -4.238932 -4.873795 4.842435 2.068528 9.198195 -7.794805 0.8440314 22.7535 7.194901 3.27223 -23.22569 8.831256 6.380697 -19.75987 11.55617 86.28093 35.9169 -19.79212 -0 0 16.2373 -7.629457 8.276439 4.662845 5.484101 -19.46943 -1.744457 -94.72956 29.73772 22.86922 0 0 -16.07173 3.51923 17.81421 9.626874
0.6779459 103.4374 2.76042 1.749498 -0.9092981 0.5526031 1.916527 -12.51694 8.476702 -0 33.95302 -0 -5.485671 -16.99723 -2.412476 -7.604262 10.39393 -23.19733 -0 5.234412 -0 7.348867 -16.79055 26.12002 -4.155345 -4.564819 4.767337 2.244052 9.135124 -7.846779 0.8766785 22.55028 7.221934 3.330769 -23.44097 8.849509 6.366208 -19.69883 11.55166 86.23588 35.88338 -19.83884 -0 0 16.11202 -7.697256 8.331402 4.709679 5.616786 -19.48801 -1.787695 -94.63161 29.6877 22.62641 0 0 -16.48694 3.589564 17.68124 9.618195
1.088432 103.2724 4.358973 1.468354 -0.5032683 0.4366989 2.295082 -14.49497 8.015635 -0 30.7612 -0 -5.590262 -15.79054 -1.815955 -7.375182 10.53268 -22.82617 -0 5.441242 -0 7.063789 -17.38594 25.67852 -4.110415 -4.157431 4.766354 2.516393 9.023678 -7.858697 0.9677809 22.20612 7.234506 3.440532 -23.74177 8.870319 6.304403 -19.5376 11.55555 86.20908 35.84161 -19.95939 -0 0 15.86908 -7.782747 8.410782 4.759037 5.88136 -19.5605 -1.828426 -94.4765 29.61876 22.17201 0 0 -17.22431 3.691354 17.50978 9.526014
1.552984 102.9127 6.169758 1.25072 0.0517583 0.2313464 2.523268 -16.65929 7.383752 -0 25.57187 -0 -5.663427 -14.0512 -0.8412993 -7.252926 10.66375 -22.28284 -0 5.837102 -0 6.71147 -18.12424 25.06053 -4.118747 -3.725988 4.870975 2.809422 8.878235 -7.774224 1.131892 21.79252 7.211333 3.592696 -24.08746 8.898086 6.169473 -19.25898 11.55258 86.24107 35.78807 -20.16097 -0 0 15.50746 -7.8884 8.514333 4.810823 6.251442 -19.74221 -1.830285 -94.21844 29.54668 21.50317 0 0 -18.21409 3.803286 17.30262 9.348014
2.059598 102.3265 8.230637 1.159608 0.7251308 0.04155871 2.519495 -18.70051 6.63038 -0 18.82316 -0 -5.703941 -11.94548 0.3912826 -7.252868 10.81175 -21.57021 -0 6.479221 -0 6.267609 -18.90607 24.21997 -4.173859 -3.361791 5.049521 3.035388 8.712534 -7.601411 1.322432 21.41119 7.163442 3.7572 -24.41597 8.915887 5.959997 -18.92126 11.5114 86.34899 35.72418 -20.39173 -0 0 15.06148 -8.018367 8.642369 4.874783 6.687055 -20.02445 -1.760298 -93.84784 29.45994 20.69821 0 0 -19.28976 3.914476 17.05766 9.136667
2.609494 101.5558 10.63658 1.191516 1.504204 -0.106728 2.394291 -20.36591 5.722014 -0 11.31521 -0 -5.721411 -9.846893 1.6635 -7.374202 11.02885 -20.67594 -0 7.435569 -0 5.670414 -19.61911 23.11709 -4.24428 -3.118106 5.184292 3.15144 8.534454 -7.45747 1.471495 21.09655 7.133407 3.906664 -24.67832 8.911743 5.702826 -18.5777 11.41385 86.55637 35.65872 -20.62302 -0 0 14.55009 -8.165815 8.801503 4.960477 7.100165 -20.31657 -1.670289 -93.40783 29.33217 19.88879 0 0 -20.2497 4.017848 16.77231 8.966872
3.18412 100.6584 13.49464 1.241753 2.275567 -0.106259 2.319143 -21.3828 4.828366 -0 4.314322 -0 -5.791446 -8.177828 2.821574 -7.493539 11.31134 -19.6657 -0 8.933938 -0 4.833194 -20.08626 21.71634 -4.202321 -2.993946 5.211244 3.180101 8.380325 -7.407473 1.544255 20.87081 7.143185 4.023998 -24.85422 8.883822 5.46194 -18.1666 11.26673 86.92448 35.59268 -20.9433 -0 0 13.93095 -8.311238 9.005177 5.060282 7.341962 -20.58176 -1.6022 -92.95775 29.15432 19.19505 0 0 -20.88777 4.081374 16.4346 8.894972
3.750082 99.77804 16.90758 1.196374 2.98234 0.1667218 2.422732 -21.46609 4.143267 0 -0.9375298 0 -6.007574 -7.127882 3.735988 -7.44981 11.58589 -18.58717 -0 11.27052 -0 3.659959 -20.0026 19.97638 -3.961434 -2.999399 5.089295 3.173159 8.224944 -7.504421 1.545106 20.69706 7.172935 4.104457 -24.98568 8.812094 5.287038 -17.7068 11.10216 87.40216 35.53313 -21.35173 -0 0 13.19559 -8.470506 9.257387 5.176065 7.314798 -20.71219 -1.598737 -92.5859 28.91161 18.76043 0 0 -21.08201 4.084799 16.04219 8.942206
4.289542 99.10112 20.91894 1.013456 3.635703 0.7331376 2.657518 -20.37479 3.727438 0 -3.75269 0 -6.435695 -6.612264 4.293507 -7.117609 11.69203 -17.49266 -0 14.68588 -0 2.099906 -18.97257 17.89396 -3.469233 -3.154538 4.824555 3.153991 8.045947 -7.740975 1.461116 20.55166 7.204861 4.126163 -25.08208 8.670002 5.191349 -17.21406 10.95259 87.93714 35.48503 -21.82395 -0 0 12.35311 -8.662881 9.558001 5.309719 7.008319 -20.66086 -1.668841 -92.35504 28.60369 18.64731 0 0 -20.82594 4.026486 15.60864 9.105046
4.807905 98.76812 25.50103 0.6904685 4.147318 1.471165 2.973101 -18.09834 3.57964 0 -4.384696 0 -7.054033 -6.518761 4.50017 -6.557553 11.3756 -16.42924 -0 19.4516 -0 0.2255003 -16.65373 15.61532 -2.713966 -3.44074 4.519939 3.119408 7.884995 -8.016505 1.294511 20.45571 7.219652 4.073924 -25.07574 8.44179 5.130309 -16.6924 10.86035 88.47489 35.4501 -22.28962 -0 0 11.4755 -8.90904 9.902682 5.476481 6.490619 -20.43072 -1.792262 -92.29835 28.23523 18.83874 0 0 -20.21369 3.910725 15.14801 9.357327
5.321607 98.85203 30.57041 0.3100454 4.290467 2.103041 3.347955 -14.82932 3.654189 0 -3.866357 0 -7.739818 -6.912678 4.498949 -6.018014 10.33017 -15.41361 -0 25.94028 -0 -1.721598 -12.93455 13.42397 -1.787146 -3.746822 4.387039 3.04859 7.837644 -8.141196 1.070029 20.46215 7.194012 3.953739 -24.87989 8.120451 5.072872 -16.17335 10.90443 88.93783 35.43731 -22.60901 -0 0 10.67269 -9.233411 10.28547 5.703023 5.864751 -20.0749 -1.932423 -92.39061 27.80804 19.24508 0 0 -19.42227 3.748947 14.67224 9.648411
5.841273 99.36977 35.96413 0.09005027 3.870799 2.283669 3.639398 -10.6704 3.800164 0 -3.323892 0 -8.3323 -7.963458 4.463722 -5.719773 8.207983 -14.44978 -0 34.31067 -0 -3.371558 -8.187976 11.6307 -0.9314388 -3.888027 4.661319 2.912541 7.989213 -7.923192 0.8162793 20.62703 7.108515 3.788368 -24.46649 7.701964 5.078845 -15.72218 11.16998 89.24036 35.46533 -22.62351 -0 0 10.01986 -9.662693 10.70185 6.011591 5.221552 -19.72621 -2.048009 -92.51907 27.33067 19.71457 0 0 -18.65735 3.570156 14.20055 9.915749
6.350684 100.2142 41.41853 0.2128428 2.897722 1.975268 3.624249 -5.497996 3.840671 0 -3.350012 0 -8.71762 -9.606184 4.510287 -5.636467 4.583147 -13.55808 -0 43.77682 -0 -4.417391 -3.491229 10.53126 -0.4608907 -3.756874 5.416216 2.712141 8.338647 -7.362738 0.6092254 20.97807 6.929656 3.632752 -23.84288 7.199994 5.190165 -15.44196 11.62417 89.24174 35.54687 -22.18595 -0 0 9.612001 -10.25227 11.13613 6.432247 4.640866 -19.48442 -2.120636 -92.56359 26.8182 20.14409 0 0 -18.0416 3.415915 13.75115 10.11115
6.850228 101.2578 46.72335 0.7722997 1.511081 1.477512 3.131582 0.4983833 3.737339 0 -4.208173 0 -8.8128 -11.52559 4.710807 -5.638317 -0.6302682 -12.70764 -0 52.81059 -0 -4.847008 0.01581494 10.23283 -0.5674016 -3.366233 6.515783 2.438789 8.767604 -6.627859 0.5031835 21.52346 6.63917 3.526836 -23.00467 6.635021 5.355505 -15.53408 12.12648 88.71176 35.6933 -21.10949 -0 0 9.585782 -11.08439 11.55556 6.992906 4.201103 -19.39809 -2.12069 -92.44351 26.27131 20.4596 0 0 -17.68061 3.335533 13.32863 10.18372
